<?xml version="1.0" encoding="utf-8" standalone="no" ?>
<!DOCTYPE svg PUBLIC "-//W3C//DTD SVG 1.0//EN" "http://www.w3.org/TR/2001/REC-SVG-20010904/DTD/svg10.dtd">
<svg xmlns="http://www.w3.org/2000/svg" width="120" height="120" >
<title>icon cord70.github.io/photo</title>
<g class="layer">
    <title>Layer 1</title>
    <path stroke="null" id="gray_shadow"
  d="m57.5819,59.68803c0.36259,0.27946 1.07584,-0.31373 1.43161,-0.39924c-0.43462,-0.65301 0.93771,-3.99363 0.35833,-5.15761c-0.28417,-2.67843 -4.65108,-8.55437 -5.19831,-9.23438c0.17496,-0.48075 2.39709,-0.14224 2.33444,-0.07155c-0.87574,0.98837 3.39205,6.23653 3.99971,9.3576c0.85267,-0.09958 1.9576,-0.56063 2.48716,0.09351c0.43598,-0.67183 3.8022,-5.80669 3.80259,-10.11099c0.00005,-0.61683 1.96797,-0.31627 1.61825,0.07566c-0.46597,2.70115 -4.26997,10.39898 -4.58145,10.68714c0.48388,2.32423 0.33857,2.49168 2.82985,4.20241c0.93528,-3.3032 3.11845,-6.17055 5.10801,-9.01601c2.24734,-3.19552 3.71517,-6.22553 6.19928,-9.55868c3.27688,-4.2396 7.52976,-8.16571 11.47911,-10.57377c2.74739,-1.67518 7.40835,-3.2165 8.12819,-3.33631c1.33328,-0.22763 2.5472,-0.25343 4.15035,-0.02405c2.3655,0.33844 4.66671,0.48271 7.19634,1.84802c2.40173,1.79084 1.70989,4.20425 1.37983,6.45036c-3.33629,5.19026 -6.71359,11.37809 -7.58264,17.59052c-0.28262,2.29855 -0.79856,6.26072 -2.32692,8.80453c-2.46493,3.91809 -5.70017,3.925 -8.71037,4.57827c1.87938,0.59233 3.98511,2.71037 5.88511,4.8486c2.96521,3.36426 4.49585,6.88327 3.94924,10.81533c-0.11693,0.82485 -2.50912,7.1499 -3.72881,9.15596c-4.62832,7.63794 -11.16051,12.97274 -16.64744,12.40573c-1.97592,-0.20417 -7.62965,-5.2254 -8.67386,-6.73552c-2.5922,-3.74876 -4.78916,-8.31292 -5.05621,-12.37309c-0.31785,-0.36995 -0.68643,-0.38153 -0.54792,-0.9022c-0.2473,1.18908 -1.02825,5.06033 -2.3326,7.54468c-1.88571,3.59166 -3.9967,-1.55234 -4.94811,-5.75862c-0.32616,-1.4419 -0.14697,-1.70228 -0.48966,-2.55774c-1.4011,0.76048 -0.55468,2.74147 -1.04267,4.39522c-0.41202,1.43953 -2.34934,5.86738 -2.89386,6.8815c-1.7406,3.24171 -5.75445,8.21015 -8.77117,9.49607c-2.79988,1.19349 -5.22085,1.15447 -7.57862,-0.24224c-3.04111,-1.80149 -7.40763,-6.10846 -10.13456,-9.64806c-3.44734,-4.37637 -6.59017,-11.04463 -4.11276,-15.95579c1.58439,-3.06605 4.6202,-7.66606 7.73541,-8.90455c-2.25025,-0.24788 -7.27948,-1.90497 -9.35654,-7.05039c-0.66573,-1.63103 -1.00227,-4.19887 -1.23654,-6.03642c-0.38317,-3.03388 -1.62951,-6.48277 -2.66841,-9.43989c-0.85026,-2.70807 -2.2921,-6.15888 -3.77031,-9.09666c-1.54934,-3.08298 -2.93931,-8.23429 -0.60992,-10.90849c0.81369,-0.93428 3.41208,-2.09924 3.96167,-2.19894c1.921,-0.35213 4.60999,0.74136 6.59824,1.38027c1.30279,0.42255 7.03991,2.73322 8.65863,4.07579c10.67139,8.85092 18.48689,20.12591 23.70831,30.60402z"
     stroke-opacity="null" stroke-width="0" fill="#b2b2b2"/>
    <path stroke="null" id="blue_butterfly"
  d="m53.58191,52.18805c0.36258,0.27946 1.07584,-0.31373 1.43161,-0.39924c-0.43462,-0.65301 0.93771,-3.99364 0.35832,-5.15761c-0.28417,-2.67842 -4.65108,-8.55437 -5.19831,-9.23437c0.17496,-0.48076 2.39709,-0.14224 2.33444,-0.07156c-0.87574,0.98837 3.39205,6.23653 3.99971,9.3576c0.85266,-0.09958 1.9576,-0.56063 2.48716,0.09351c0.43598,-0.67184 3.8022,-5.8067 3.80258,-10.111c0.00006,-0.61683 1.96797,-0.31627 1.61825,0.07566c-0.46597,2.70115 -4.26997,10.39898 -4.58145,10.68714c0.48389,2.32423 0.33857,2.49168 2.82985,4.20241c0.93528,-3.3032 3.11845,-6.17055 5.10801,-9.01601c2.24734,-3.19552 3.71517,-6.22552 6.19928,-9.55867c3.27689,-4.2396 7.52977,-8.16572 11.47911,-10.57378c2.74739,-1.67518 7.40835,-3.2165 8.12819,-3.33631c1.33328,-0.22764 2.5472,-0.25343 4.15035,-0.02405c2.36549,0.33844 4.66671,0.48271 7.19634,1.84802c2.40173,1.79084 1.70989,4.20425 1.37983,6.45036c-3.33629,5.19026 -6.71359,11.37809 -7.58264,17.59052c-0.28262,2.29855 -0.79855,6.26072 -2.32692,8.80453c-2.46493,3.91809 -5.70017,3.92501 -8.71037,4.57827c1.87938,0.59233 3.98511,2.71037 5.88511,4.8486c2.96521,3.36426 4.49586,6.88327 3.94924,10.81533c-0.11693,0.82484 -2.50911,7.1499 -3.72881,9.15595c-4.62832,7.63795 -11.16051,12.97275 -16.64744,12.40574c-1.97592,-0.20417 -7.62965,-5.2254 -8.67386,-6.73552c-2.5922,-3.74876 -4.78916,-8.31292 -5.05621,-12.3731c-0.31784,-0.36995 -0.68643,-0.38153 -0.54791,-0.9022c-0.2473,1.18908 -1.02825,5.06033 -2.3326,7.54468c-1.88571,3.59166 -3.9967,-1.55233 -4.94812,-5.75862c-0.32616,-1.4419 -0.14697,-1.70228 -0.48965,-2.55774c-1.4011,0.76048 -0.55468,2.74147 -1.04267,4.39522c-0.41202,1.43953 -2.34934,5.86738 -2.89386,6.88151c-1.7406,3.2417 -5.75445,8.21015 -8.77117,9.49606c-2.79988,1.1935 -5.22085,1.15447 -7.57862,-0.24224c-3.04111,-1.80149 -7.40763,-6.10845 -10.13456,-9.64806c-3.44735,-4.37637 -6.59017,-11.04463 -4.11277,-15.95579c1.58439,-3.06605 4.62021,-7.66606 7.73541,-8.90455c-2.25025,-0.24788 -7.27948,-1.90497 -9.35653,-7.05039c-0.66573,-1.63103 -1.00228,-4.19887 -1.23654,-6.03642c-0.38317,-3.03389 -1.62951,-6.48277 -2.66841,-9.4399c-0.85026,-2.70807 -2.2921,-6.15888 -3.7703,-9.09666c-1.54934,-3.08298 -2.93932,-8.23429 -0.60992,-10.90849c0.81369,-0.93428 3.41208,-2.09924 3.96167,-2.19894c1.921,-0.35214 4.60999,0.74136 6.59824,1.38027c1.30278,0.42255 7.0399,2.73322 8.65862,4.07579c10.6714,8.85092 18.48689,20.12591 23.70832,30.60401z"
     stroke-opacity="null" stroke-width="0" fill="#0000ed"/>
  </g>
</svg>