<?xml version="1.0" encoding="utf-8" standalone="no" ?>
<!DOCTYPE svg PUBLIC "-//W3C//DTD SVG 20010904//EN"
 "http://www.w3.org/TR/2001/REC-SVG-20010904/DTD/svg10.dtd">
<svg version="1.0" xmlns="http://www.w3.org/2000/svg"
 width="700.000000pt" height="700.000000pt" viewBox="0 0 700.000000 700.000000"
 preserveAspectRatio="xMidYMid meet">
<metadata>
Created by potrace 1.11, written by Peter Selinger 2001-2013
</metadata>
<g transform="translate(0.000000,700.000000) scale(0.100000,-0.100000)"
fill="#000000" stroke="none">
<path d="M843 6055 c-60 -18 -180 -84 -213 -118 -53 -54 -73 -111 -77 -217 -4
-150 26 -260 137 -495 158 -334 313 -796 344 -1025 3 -25 8 -58 11 -75 3 -16
7 -41 9 -55 17 -110 34 -167 72 -247 24 -50 49 -97 56 -105 7 -8 35 -37 61
-65 43 -44 51 -60 63 -119 13 -61 73 -200 105 -245 10 -13 2 -29 -43 -91 -75
-101 -162 -247 -189 -316 -32 -82 -36 -247 -8 -357 36 -146 102 -287 200 -430
26 -38 61 -104 77 -145 88 -221 223 -412 462 -650 145 -145 175 -172 260 -236
178 -133 310 -158 495 -94 193 66 471 377 599 670 123 280 127 291 130 385 2
39 6 69 9 67 4 -1 20 -5 36 -8 25 -5 31 -13 41 -53 58 -227 127 -366 192 -387
55 -17 122 94 174 286 8 30 17 61 19 69 7 18 91 -116 145 -229 161 -337 237
-442 445 -611 180 -147 246 -179 356 -173 267 15 582 254 838 637 67 100 114
196 190 385 95 239 106 304 75 454 -26 127 -102 273 -198 383 -15 17 -31 48
-37 70 -17 66 -55 158 -92 220 l-35 59 73 31 c76 33 125 67 166 112 30 34 89
119 89 128 0 4 6 21 14 38 40 91 58 168 91 380 50 322 145 575 341 904 105
176 112 191 120 243 26 196 -18 284 -175 345 -67 27 -70 29 -64 54 4 14 7 71
7 126 1 92 -1 104 -27 147 -15 26 -39 55 -55 66 -34 24 -146 69 -192 77 -18 3
-36 8 -39 10 -4 2 -45 9 -91 15 -47 6 -96 13 -110 16 -58 10 -200 4 -263 -10
-76 -18 -292 -102 -382 -149 -210 -110 -459 -321 -672 -572 -80 -95 -131 -168
-262 -379 -62 -98 -161 -251 -222 -340 -123 -179 -179 -274 -218 -376 l-27
-69 -26 17 c-79 53 -109 95 -127 173 -10 42 -7 50 50 169 95 196 105 219 145
320 51 132 67 192 51 202 -20 14 -80 5 -82 -12 -1 -8 -5 -41 -9 -74 -13 -116
-101 -334 -190 -474 -22 -36 -30 -41 -41 -32 -9 8 -33 10 -63 7 -47 -5 -49 -4
-60 27 -7 18 -12 42 -12 53 0 11 -8 23 -17 25 -10 3 -31 29 -47 59 -16 30 -38
72 -51 94 -92 167 -116 217 -117 249 -1 34 -3 36 -37 37 -44 1 -85 -2 -90 -7
-2 -2 15 -30 37 -61 99 -137 222 -339 222 -363 0 -5 -7 -10 -15 -12 -12 -2 -8
-14 20 -54 45 -64 49 -98 26 -221 -10 -55 -17 -107 -15 -117 3 -20 -63 -53
-77 -39 -5 5 -27 44 -49 86 -60 117 -122 228 -195 349 -55 91 -79 129 -149
233 -252 375 -582 759 -869 1008 -33 29 -78 69 -101 90 -60 55 -360 200 -526
253 -25 8 -54 19 -65 24 -27 12 -151 47 -197 55 -62 12 -96 11 -135 0z"/>
</g>
</svg>
